# Blender v2.91.2 OBJ File: 'stage_1_5.blend'
# www.blender.org
mtllib stage_1_5.mtl
o Cube
v 10.000000 0.800000 -10.000000
v 10.000000 -0.800000 -10.000000
v 10.000000 0.800000 10.000000
v 10.000000 -0.800000 10.000000
v -10.000000 0.800000 -10.000000
v -10.000000 -0.800000 -10.000000
v -10.000000 0.800000 10.000000
v -10.000000 -0.800000 10.000000
v 7.598982 0.800000 10.000000
v -10.000000 0.800000 -8.066299
v -3.210266 2.800000 -3.393128
v -4.144900 2.800000 -2.255313
v 4.835716 2.800000 7.172301
v 4.266811 2.800000 8.228845
v 3.088356 2.800000 7.456754
v 0.121909 2.800000 5.343669
v -0.954952 2.800000 4.266809
v -2.966448 2.800000 2.255312
v -5.851622 2.800000 -1.320680
v -10.000000 0.800000 -4.612214
v 4.266809 0.800000 10.000000
v -5.851622 6.800000 -1.320680
v -0.954952 6.800000 4.266809
v 7.841264 2.800000 7.530396
v 7.924071 2.800000 5.750031
v 8.045980 2.800000 0.670497
v 8.066918 2.800000 -2.176875
v 0.121909 6.800000 5.343669
v 3.088355 6.800000 7.456754
v 4.266809 6.800000 10.000000
v 7.841264 6.800000 7.530396
v 7.924071 6.800000 5.750031
v 4.266811 6.800000 8.228845
v -10.000000 2.800000 -4.612214
v 7.598982 2.800000 10.000000
v -10.000000 2.800000 -10.000000
v -10.000000 2.800000 -8.066299
v 10.000000 2.800000 10.000000
v 10.000000 2.800000 -10.000000
v -10.000000 2.800000 10.000000
v 4.266809 2.800000 10.000000
v 4.266809 1.800000 10.000000
v -10.000000 1.800000 10.000000
v 10.000000 1.800000 -10.000000
v 10.000000 1.800000 10.000000
v -10.000000 1.800000 -8.066299
v -10.000000 1.800000 -10.000000
v 7.598982 1.800000 10.000000
v -10.000000 1.800000 -4.612214
v -0.954952 9.800000 4.266809
v -10.000000 3.800000 10.000000
v 7.598982 3.800000 10.000000
v -10.000000 3.800000 -4.612214
v -7.598984 3.800000 -4.327764
v -2.966448 3.800000 2.255312
v 8.066918 1.800000 -2.176875
v 8.045980 1.800000 0.670497
v 7.924071 1.800000 5.750031
v 7.841264 1.800000 7.530396
v -5.851622 3.800000 -1.320680
v -0.954952 3.800000 4.266809
v 0.121909 3.800000 5.343669
v 3.088356 3.800000 7.456754
v -0.954952 1.800000 4.266809
v 0.121909 1.800000 5.343669
v 3.088356 1.800000 7.456754
v 4.266811 1.800000 8.228845
v 4.835716 1.800000 7.172301
v 4.266809 3.800000 10.000000
v 7.841264 3.800000 7.530396
v 7.924071 3.800000 5.750031
v 4.266811 3.800000 8.228845
v 4.835716 3.800000 7.172301
v 2.234996 1.800000 -4.327764
v 3.738535 1.800000 -2.336586
v 1.706722 1.800000 -2.052131
v 1.462908 1.800000 0.020318
v 0.121909 1.800000 2.255312
v -2.844540 2.800000 -4.774760
v 4.835716 6.800000 7.172301
v 0.975272 2.800000 -4.693489
v 2.234996 2.800000 -4.327764
v 3.738535 2.800000 -2.336586
v 1.706722 2.800000 -2.052131
v 1.462908 2.800000 0.020318
v 0.121909 2.800000 2.255312
v 8.045980 3.800000 0.670497
v 8.066918 3.800000 -2.176875
v 0.121909 9.800000 5.343669
v 3.088355 9.800000 7.456754
v 4.266809 9.800000 10.000000
v 4.266811 9.800000 8.228845
v 7.841264 9.800000 7.530396
v 7.924071 9.800000 5.750031
v -10.000000 3.800000 -8.066299
v 10.000000 3.800000 10.000000
v -10.000000 3.800000 -10.000000
v 10.000000 3.800000 -10.000000
v -4.144900 3.800000 -2.255313
v -3.210266 3.800000 -3.393128
v -2.844540 3.800000 -4.774760
v -5.567169 3.800000 -4.734123
v 0.975272 3.800000 -4.693489
v 2.234996 3.800000 -4.327764
v 3.738535 3.800000 -2.336586
v -2.966448 6.800000 2.255312
v -7.598984 6.800000 -4.327764
v -10.000000 6.800000 -4.612214
v 7.598982 6.800000 10.000000
v -10.000000 6.800000 10.000000
v 7.761527 6.800000 9.244750
v 8.045980 6.800000 0.670497
v 8.066918 6.800000 -2.176875
v 7.070713 6.800000 -7.781846
v 8.086619 6.800000 -4.856034
v 4.998260 6.800000 -8.269482
v 0.934633 6.800000 -8.432027
v -2.966448 6.800000 -8.472662
v -7.477073 6.800000 -8.269482
v -10.000000 6.800000 -8.066299
v 10.000000 6.800000 10.000000
v -10.000000 6.800000 -10.000000
v 10.000000 6.800000 -10.000000
v -2.844540 6.800000 -4.774760
v -5.567169 6.800000 -4.734123
v 0.975272 6.800000 -4.693489
v 2.234996 6.800000 -4.327764
v 3.738535 6.800000 -2.336586
v -5.851622 9.800000 -1.320680
v -2.966448 9.800000 2.255312
v -7.598984 9.800000 -4.327764
v -10.000000 9.800000 -4.612214
v -10.000000 9.800000 10.000000
v 7.761527 9.800000 9.244750
v 7.598982 9.800000 10.000000
v 8.045980 9.800000 0.670497
v 8.066918 9.800000 -2.176875
v 7.070713 9.800000 -7.781846
v 8.086619 9.800000 -4.856034
v 4.998260 9.800000 -8.269482
v 0.934633 9.800000 -8.432027
v -2.966448 9.800000 -8.472662
v -7.477073 9.800000 -8.269482
v -10.000000 9.800000 -8.066299
v 10.000000 9.800000 10.000000
v -10.000000 9.800000 -10.000000
v 10.000000 9.800000 -10.000000
v 7.924072 12.800000 5.750031
v 7.841265 12.800000 7.530396
v 4.266812 12.800000 8.228845
v 4.266810 12.800000 10.000000
v 3.088356 12.800000 7.456754
v 0.121909 12.800000 5.343669
v -0.954952 12.800000 4.266809
v -5.851622 12.800000 -1.320680
v -2.966448 12.800000 2.255312
v -7.598984 12.800000 -4.327764
v -10.000000 12.800000 -4.612214
v -10.000000 12.800000 10.000000
v 7.761528 12.800000 9.244750
v 7.598982 12.800000 10.000000
v 8.045980 12.800000 0.670497
v 8.066918 12.800000 -2.176875
v 7.070714 12.800000 -7.781846
v 8.086619 12.800000 -4.856034
v 4.998260 12.800000 -8.269482
v 0.934634 12.800000 -8.432027
v -2.966448 12.800000 -8.472662
v -7.477072 12.800000 -8.269482
v -10.000000 12.800000 -8.066299
v 10.000000 12.800000 10.000000
v -10.000000 12.800000 -10.000000
v 10.000000 12.800000 -10.000000
vt 0.625000 0.500000
vt 0.625000 0.250000
vt 0.625000 0.250000
vt 0.625000 0.500000
vt 0.375000 0.750000
vt 0.625000 0.750000
vt 0.625000 0.780013
vt 0.625000 0.821665
vt 0.625000 1.000000
vt 0.375000 1.000000
vt 0.375000 0.000000
vt 0.625000 0.000000
vt 0.625000 0.182653
vt 0.625000 0.225829
vt 0.375000 0.250000
vt 0.125000 0.500000
vt 0.375000 0.500000
vt 0.125000 0.750000
vt 0.761937 0.678335
vt 0.748476 0.653191
vt 0.748476 0.653191
vt 0.761937 0.678335
vt 0.625000 0.750000
vt 0.625000 0.780013
vt 0.625000 0.821665
vt 0.625000 0.225829
vt 0.625000 0.182653
vt 0.625000 0.000000
vt 0.651984 0.719130
vt 0.689553 0.714654
vt 0.689553 0.714654
vt 0.651984 0.719130
vt 0.649164 0.597789
vt 0.649425 0.633381
vt 0.649425 0.633381
vt 0.649164 0.597789
vt 0.696665 0.727860
vt 0.650949 0.696875
vt 0.703268 0.595793
vt 0.722062 0.570903
vt 0.728666 0.599348
vt 0.731714 0.625254
vt 0.748476 0.691796
vt 0.711396 0.718209
vt 0.625000 0.750000
vt 0.625000 0.780013
vt 0.731714 0.625254
vt 0.696665 0.727860
vt 0.625000 1.000000
vt 0.748476 0.691796
vt 0.761937 0.678335
vt 0.748476 0.691796
vt 0.625000 0.500000
vt 0.625000 0.500000
vt 0.625000 0.750000
vt 0.625000 0.182653
vt 0.625000 0.000000
vt 0.625000 0.000000
vt 0.625000 0.182653
vt 0.711396 0.718209
vt 0.711396 0.718209
vt 0.625000 0.250000
vt 0.625000 0.225829
vt 0.625000 0.225829
vt 0.625000 0.250000
vt 0.728666 0.599348
vt 0.722062 0.570903
vt 0.737809 0.566331
vt 0.785557 0.565315
vt 0.790128 0.582586
vt 0.801811 0.596809
vt 0.823145 0.608492
vt 0.787081 0.653191
vt 0.650949 0.696875
vt 0.703268 0.595793
vt 0.625000 0.821665
vt 0.625000 1.000000
vt 0.748476 0.691796
vt 0.711396 0.718209
vt 0.625000 1.000000
vt 0.625000 0.821665
vt 0.625000 0.821665
vt 0.625000 1.000000
vt 0.696665 0.727860
vt 0.696665 0.727860
vt 0.823145 0.608492
vt 0.801811 0.596809
vt 0.790128 0.582586
vt 0.785557 0.565315
vt 0.819590 0.565824
vt 0.844987 0.570903
vt 0.625000 0.500000
vt 0.625000 0.750000
vt 0.737809 0.566331
vt 0.689553 0.714654
vt 0.651984 0.719130
vt 0.787081 0.653191
vt 0.722062 0.570903
vt 0.703268 0.595793
vt 0.650949 0.696875
vt 0.649425 0.633381
vt 0.649164 0.597789
vt 0.625000 0.780013
vt 0.761937 0.678335
vt 0.761937 0.678335
vt 0.748476 0.691796
vt 0.655013 0.750000
vt 0.652981 0.740559
vt 0.651984 0.719130
vt 0.689553 0.714654
vt 0.696665 0.750000
vt 0.652981 0.740559
vt 0.651984 0.719130
vt 0.785557 0.565315
vt 0.737809 0.566331
vt 0.722062 0.570903
vt 0.703268 0.595793
vt 0.649164 0.597789
vt 0.648917 0.564300
vt 0.661616 0.527727
vt 0.687522 0.521632
vt 0.738317 0.519600
vt 0.787081 0.519092
vt 0.843463 0.521631
vt 0.875000 0.524171
vt 0.875000 0.567347
vt 0.844987 0.570903
vt 0.819590 0.565824
vt 0.650949 0.696875
vt 0.649425 0.633381
vt 0.823145 0.608492
vt 0.787081 0.653191
vt 0.625000 0.182653
vt 0.625000 0.225829
vt 0.625000 0.780013
vt 0.625000 0.250000
vt 0.625000 0.000000
vt 0.844987 0.570903
vt 0.875000 0.567347
vt 0.875000 0.567347
vt 0.844987 0.570903
vt 0.687522 0.521632
vt 0.661616 0.527727
vt 0.661616 0.527727
vt 0.687522 0.521632
vt 0.843463 0.521631
vt 0.875000 0.524171
vt 0.787081 0.653191
vt 0.650949 0.696875
vt 0.649425 0.633381
vt 0.823145 0.608492
vt 0.649164 0.597789
vt 0.625000 0.750000
vt 0.625000 0.780013
vt 0.648917 0.564300
vt 0.625000 0.250000
vt 0.625000 0.500000
vt 0.625000 0.225829
vt 0.696665 0.727860
vt 0.696665 0.750000
vt 0.738317 0.519600
vt 0.625000 0.000000
vt 0.625000 0.182653
vt 0.711396 0.718209
vt 0.787081 0.519092
vt 0.655013 0.750000
vt 0.625000 0.821665
vt 0.625000 1.000000
vt 0.625000 0.500000
vt 0.875000 0.500000
vt 0.875000 0.524171
vt 0.843463 0.521631
vt 0.787081 0.519092
vt 0.738317 0.519600
vt 0.648917 0.564300
vt 0.649164 0.597789
vt 0.649425 0.633381
vt 0.650949 0.696875
vt 0.651984 0.719130
vt 0.652981 0.740559
vt 0.655013 0.750000
vt 0.625000 0.750000
vt 0.696665 0.750000
vt 0.696665 0.727860
vt 0.711396 0.718209
vt 0.748476 0.691796
vt 0.761937 0.678335
vt 0.787081 0.653191
vt 0.823145 0.608492
vt 0.875000 0.750000
vt 0.625000 0.000000
vt 0.625000 0.182653
vt 0.625000 0.821665
vt 0.625000 1.000000
vt 0.625000 0.780013
vt 0.625000 0.250000
vt 0.625000 0.225829
vn 0.0000 0.0000 -1.0000
vn 0.0000 0.0000 1.0000
vn -1.0000 -0.0000 0.0000
vn 0.0000 -1.0000 0.0000
vn 1.0000 0.0000 0.0000
vn 0.8816 0.0000 0.4720
vn 0.1183 0.0000 -0.9930
vn -1.0000 0.0000 -0.0074
vn 0.0000 1.0000 0.0000
vn 0.8575 0.0000 0.5145
vn -0.8805 0.0000 -0.4741
vn 0.7071 0.0000 -0.7071
vn 0.5802 0.0000 -0.8145
vn -0.9997 0.0000 -0.0240
vn -0.7980 0.0000 0.6026
vn -0.0369 0.0000 0.9993
vn 0.5480 0.0000 -0.8365
vn 0.9741 0.0000 0.2261
vn -0.9989 0.0000 -0.0465
vn 0.9932 0.0000 0.1168
vn -0.0213 0.0000 0.9998
vn 0.7783 0.0000 -0.6279
vn -0.2788 0.0000 0.9603
vn 0.4803 0.0000 0.8771
vn 0.7727 0.0000 0.6347
vn 0.9667 0.0000 0.2559
vn 0.8646 0.0000 -0.5024
vn 0.0149 0.0000 0.9999
vn 0.1961 0.0000 0.9806
vn 0.1176 0.0000 -0.9931
vn -0.2290 0.0000 0.9734
vn 0.0803 0.0000 0.9968
vn -0.9447 0.0000 0.3280
vn -0.0400 0.0000 0.9992
vn -0.0104 0.0000 0.9999
vn -0.9776 0.0000 -0.2104
vn 0.0450 0.0000 0.9990
usemtl Material
s off
f 1/1/1 5/2/1 47/3/1 44/4/1
f 4/5/2 3/6/2 9/7/2 21/8/2 7/9/2 8/10/2
f 8/11/3 7/12/3 20/13/3 10/14/3 5/2/3 6/15/3
f 6/16/4 2/17/4 4/5/4 8/18/4
f 2/17/5 1/1/5 3/6/5 4/5/5
f 6/15/1 5/2/1 1/1/1 2/17/1
f 64/19/6 78/20/6 86/21/6 17/22/6
f 9/7/2 3/6/2 45/23/2 48/24/2
f 21/8/2 9/7/2 48/24/2 42/25/2
f 3/6/5 1/1/5 44/4/5 45/23/5
f 5/2/3 10/14/3 46/26/3 47/3/3
f 10/14/3 20/13/3 49/27/3 46/26/3
f 20/13/3 7/12/3 43/28/3 49/27/3
f 59/29/7 68/30/7 13/31/7 24/32/7
f 56/33/8 57/34/8 26/35/8 27/36/8
f 67/37/9 68/30/9 59/29/9 58/38/9 57/34/9 56/33/9 75/39/9 74/40/9 76/41/9 77/42/9 78/20/9 64/19/9 65/43/9 66/44/9
f 48/24/2 45/23/2 38/45/2 35/46/2
f 78/20/10 77/42/10 85/47/10 86/21/10
f 68/30/11 67/37/11 14/48/11 13/31/11
f 7/9/2 21/8/2 42/25/2 43/49/2
f 16/50/12 17/22/12 61/51/12 62/52/12
f 38/45/5 39/53/5 98/54/5 96/55/5
f 34/56/3 40/57/3 51/58/3 53/59/3
f 15/60/13 16/50/13 62/52/13 63/61/13
f 36/62/3 37/63/3 95/64/3 97/65/3
f 17/22/9 86/21/9 85/47/9 84/66/9 82/67/9 81/68/9 79/69/9 11/70/9 12/71/9 19/72/9 18/73/9
f 46/26/3 49/27/3 34/56/3 37/63/3
f 57/34/14 58/38/14 25/74/14 26/35/14
f 65/43/12 64/19/12 17/22/12 16/50/12
f 74/40/15 75/39/15 83/75/15 82/67/15
f 66/44/13 65/43/13 16/50/13 15/60/13
f 75/39/16 56/33/16 27/36/16 83/75/16
f 43/49/2 42/25/2 41/76/2 40/77/2
f 67/37/17 66/44/17 15/60/17 14/48/17
f 45/23/5 44/4/5 39/53/5 38/45/5
f 49/27/3 43/28/3 40/57/3 34/56/3
f 76/41/18 74/40/18 82/67/18 84/66/18
f 47/3/3 46/26/3 37/63/3 36/62/3
f 42/25/2 48/24/2 35/46/2 41/76/2
f 58/38/19 59/29/19 24/32/19 25/74/19
f 77/42/20 76/41/20 84/66/20 85/47/20
f 44/4/1 47/3/1 36/62/1 39/53/1
f 63/61/13 62/52/13 28/78/13 29/79/13
f 51/80/2 69/81/2 30/82/2 110/83/2
f 72/84/17 63/61/17 29/79/17 33/85/17
f 60/86/9 99/87/9 100/88/9 101/89/9 102/90/9 54/91/9
f 96/55/5 98/54/5 123/92/5 121/93/5
f 79/69/21 81/68/21 103/94/21 101/89/21
f 40/77/2 41/76/2 69/81/2 51/80/2
f 24/32/7 13/31/7 73/95/7 70/96/7
f 18/73/22 19/72/22 60/86/22 55/97/22
f 81/68/23 82/67/23 104/98/23 103/94/23
f 19/72/24 12/71/24 99/87/24 60/86/24
f 13/31/11 14/48/11 72/84/11 73/95/11
f 82/67/15 83/75/15 105/99/15 104/98/15
f 26/35/14 25/74/14 71/100/14 87/101/14
f 12/71/25 11/70/25 100/88/25 99/87/25
f 37/63/3 34/56/3 53/59/3 95/64/3
f 25/74/19 24/32/19 70/96/19 71/100/19
f 83/75/16 27/36/16 88/102/16 105/99/16
f 27/36/8 26/35/8 87/101/8 88/102/8
f 11/70/26 79/69/26 101/89/26 100/88/26
f 41/76/2 35/46/2 52/103/2 69/81/2
f 35/46/2 38/45/2 96/55/2 52/103/2
f 17/22/12 18/73/12 55/97/12 61/51/12
f 39/53/1 36/62/1 97/65/1 98/54/1
f 14/48/17 15/60/17 63/61/17 72/84/17
f 28/78/12 23/104/12 50/105/12 89/106/12
f 109/107/9 111/108/9 31/109/9 80/110/9 33/85/9 30/111/9
f 31/109/19 111/108/19 134/112/19 93/113/19
f 124/114/9 126/115/9 127/116/9 128/117/9 113/118/9 115/119/9 114/120/9 116/121/9 117/122/9 118/123/9 119/124/9 120/125/9 108/126/9 107/127/9 125/128/9
f 101/89/21 103/94/21 126/115/21 124/114/21
f 70/96/7 73/95/7 80/110/7 31/109/7
f 62/52/12 61/51/12 23/104/12 28/78/12
f 103/94/23 104/98/23 127/116/23 126/115/23
f 87/101/14 71/100/14 32/129/14 112/130/14
f 55/97/22 60/86/22 22/131/22 106/132/22
f 95/64/3 53/59/3 108/133/3 120/134/3
f 104/98/15 105/99/15 128/117/15 127/116/15
f 88/102/8 87/101/8 112/130/8 113/118/8
f 60/86/27 54/91/27 107/127/27 22/131/27
f 52/103/2 96/55/2 121/93/2 109/135/2
f 105/99/16 88/102/16 113/118/16 128/117/16
f 73/95/11 72/84/11 33/85/11 80/110/11
f 98/54/1 97/65/1 122/136/1 123/92/1
f 61/51/12 55/97/12 106/132/12 23/104/12
f 71/100/19 70/96/19 31/109/19 32/129/19
f 102/90/28 101/89/28 124/114/28 125/128/28
f 69/81/2 52/103/2 109/135/2 30/82/2
f 97/65/3 95/64/3 120/134/3 122/136/3
f 54/91/29 102/90/29 125/128/29 107/127/29
f 53/59/3 51/58/3 110/137/3 108/133/3
f 131/138/30 132/139/30 158/140/30 157/141/30
f 140/142/31 138/143/31 164/144/31 166/145/31
f 120/125/32 119/124/32 143/146/32 144/147/32
f 23/104/12 106/132/12 130/148/12 50/105/12
f 112/130/14 32/129/14 94/149/14 136/150/14
f 106/132/22 22/131/22 129/151/22 130/148/22
f 113/118/8 112/130/8 136/150/8 137/152/8
f 22/131/27 107/127/27 131/138/27 129/151/27
f 109/135/2 121/93/2 145/153/2 135/154/2
f 114/120/33 115/119/33 139/155/33 138/143/33
f 115/119/8 113/118/8 137/152/8 139/155/8
f 107/127/30 108/126/30 132/139/30 131/138/30
f 123/92/1 122/136/1 146/156/1 147/157/1
f 32/129/19 31/109/19 93/113/19 94/149/19
f 116/121/31 114/120/31 138/143/31 140/142/31
f 122/136/3 120/134/3 144/158/3 146/156/3
f 30/111/5 33/85/5 92/159/5 91/160/5
f 117/122/34 116/121/34 140/142/34 141/161/34
f 108/133/3 110/137/3 133/162/3 132/163/3
f 121/93/5 123/92/5 147/157/5 145/153/5
f 33/85/17 29/79/17 90/164/17 92/159/17
f 118/123/35 117/122/35 141/161/35 142/165/35
f 111/108/36 109/107/36 135/166/36 134/112/36
f 110/83/2 30/82/2 91/167/2 133/168/2
f 29/79/13 28/78/13 89/106/13 90/164/13
f 119/124/37 118/123/37 142/165/37 143/146/37
f 173/169/9 172/170/9 170/171/9 169/172/9 168/173/9 167/174/9 166/145/9 164/144/9 165/175/9 163/176/9 162/177/9 148/178/9 149/179/9 160/180/9 161/181/9 171/182/9
f 151/183/9 150/184/9 152/185/9 153/186/9 154/187/9 156/188/9 155/189/9 157/141/9 158/140/9 159/190/9
f 145/153/5 147/157/5 173/169/5 171/182/5
f 94/149/19 93/113/19 149/179/19 148/178/19
f 141/161/34 140/142/34 166/145/34 167/174/34
f 132/163/3 133/162/3 159/191/3 158/192/3
f 133/168/2 91/167/2 151/193/2 159/194/2
f 91/160/5 92/159/5 150/184/5 151/183/5
f 142/165/35 141/161/35 167/174/35 168/173/35
f 134/112/36 135/166/36 161/181/36 160/180/36
f 139/155/8 137/152/8 163/176/8 165/175/8
f 92/159/17 90/164/17 152/185/17 150/184/17
f 143/146/37 142/165/37 168/173/37 169/172/37
f 93/113/19 134/112/19 160/180/19 149/179/19
f 50/105/12 130/148/12 156/188/12 154/187/12
f 90/164/13 89/106/13 153/186/13 152/185/13
f 144/147/32 143/146/32 169/172/32 170/171/32
f 136/150/14 94/149/14 148/178/14 162/177/14
f 89/106/12 50/105/12 154/187/12 153/186/12
f 135/154/2 145/153/2 171/182/2 161/195/2
f 137/152/8 136/150/8 162/177/8 163/176/8
f 130/148/22 129/151/22 155/189/22 156/188/22
f 147/157/1 146/156/1 172/196/1 173/169/1
f 138/143/33 139/155/33 165/175/33 164/144/33
f 129/151/27 131/138/27 157/141/27 155/189/27
f 146/156/3 144/158/3 170/197/3 172/196/3
